<?xml version="1.0" encoding="utf-8"?>
<!-- Generator: Adobe Illustrator 16.0.0, SVG Export Plug-In . SVG Version: 6.00 Build 0)  -->
<!DOCTYPE svg PUBLIC "-//W3C//DTD SVG 1.1//EN" "http://www.w3.org/Graphics/SVG/1.1/DTD/svg11.dtd">
<svg version="1.1" id="图层_1" xmlns="http://www.w3.org/2000/svg" xmlns:xlink="http://www.w3.org/1999/xlink" x="0px" y="0px"
	 width="32px" height="32px" viewBox="0 0 32 32" enable-background="new 0 0 32 32" xml:space="preserve">
<g>
	<circle fill-rule="evenodd" clip-rule="evenodd" fill="#0866A6" cx="16" cy="16" r="16"/>
</g>
<g>
	<path fill-rule="evenodd" clip-rule="evenodd" fill="#FFFFFF" d="M17,23.1l0.3-1.5l-1.1-1c-0.4-0.4-0.5-0.8-0.4-1.3s0.5-0.8,1-0.8
		l1.3-0.2c-0.1,0-0.1-0.1-0.2-0.1c-0.2-0.1-0.3-0.3-0.3-0.4s-0.1-0.3-0.1-0.5c0-0.2,0-0.3,0-0.5c0-0.1,0.1-0.2,0.1-0.3
		s0.1-0.2,0.1-0.2c0.1-0.1,0.1-0.1,0.2-0.2c0.1-0.1,0.2-0.1,0.3-0.2c0.1-0.1,0.2-0.2,0.2-0.3c0.1-0.1,0.1-0.3,0.2-0.4
		c0-0.1,0.1-0.3,0.1-0.5c0.1,0,0.2-0.1,0.3-0.2c0.1-0.1,0.2-0.2,0.2-0.3c0.1-0.1,0.1-0.3,0.1-0.5c0-0.2,0-0.3,0-0.4
		c0-0.1-0.1-0.2-0.1-0.3c0-0.1-0.1-0.1-0.2-0.2c0-0.4,0-0.8-0.1-1.2c0-0.3-0.1-0.7-0.3-1.1c-0.1-0.4-0.3-0.7-0.6-1.1
		c-0.1-0.1-0.3-0.3-0.4-0.4c-0.2-0.1-0.4-0.3-0.6-0.4c-0.2-0.1-0.5-0.2-0.7-0.3c-0.3-0.1-0.5-0.1-0.8-0.1c-0.2,0-0.5,0-0.7,0.1
		c-0.2,0-0.5,0.1-0.7,0.2S13.8,9,13.5,9.1c-0.2,0.2-0.4,0.4-0.6,0.7c-0.2,0.3-0.4,0.6-0.5,1c-0.1,0.4-0.2,0.7-0.2,1
		c-0.1,0.4-0.1,0.8-0.1,1.1C12.1,13,12,13.1,12,13.3c0,0.1-0.1,0.2-0.1,0.4c0,0.1,0,0.3,0.1,0.5c0.1,0.2,0.1,0.3,0.2,0.4
		c0.1,0.1,0.1,0.2,0.2,0.2c0.1,0.1,0.1,0.1,0.2,0.1c0,0.2,0.1,0.3,0.1,0.5c0,0.1,0.1,0.3,0.2,0.4c0.1,0.1,0.1,0.2,0.2,0.3
		c0.2,0.1,0.3,0.3,0.5,0.4c0.1,0.1,0.2,0.3,0.2,0.6c0,0.2,0,0.3,0,0.4c0,0.1,0,0.3-0.1,0.4c0,0.1-0.1,0.2-0.2,0.4
		c-0.1,0.1-0.3,0.2-0.5,0.4c-0.3,0.2-0.6,0.3-0.9,0.4c-0.3,0.1-1.9,0.6-2.2,0.7C9.6,19.6,9.3,19.8,9,20c-0.2,0.2-0.4,0.5-0.4,0.8
		c-0.1,0.6-0.1,0.7-0.1,1.2c0.1,0.4,0.1,0.7,0.2,0.7c0.1,0.1,0.3,0.2,0.8,0.2c0.4,0.1,3.1,0.6,6.3,0.6c0.4,0,0.8,0,1.2,0
		C17,23.4,17,23.2,17,23.1L17,23.1L17,23.1z M23.3,19.5l-1.6-0.2c-0.2,0-0.5-0.2-0.6-0.5l-0.7-1.4c-0.1-0.1-0.1-0.2-0.2-0.2
		c-0.1,0-0.1,0.1-0.2,0.2l-0.7,1.4c-0.1,0.2-0.4,0.4-0.6,0.5l-1.6,0.2c-0.2,0-0.3,0.2-0.1,0.4l1.1,1.1c0.2,0.2,0.3,0.5,0.2,0.7
		l-0.3,1.6c0,0.2,0,0.3,0.2,0.3c0,0,0.1,0,0.2,0l1.4-0.7c0.1-0.1,0.2-0.1,0.4-0.1c0.1,0,0.3,0,0.4,0.1l1.4,0.7c0.1,0,0.1,0,0.2,0
		c0.1,0,0.2-0.1,0.2-0.3L22,21.7c0-0.2,0.1-0.6,0.2-0.7l1.1-1.1C23.6,19.7,23.5,19.5,23.3,19.5L23.3,19.5L23.3,19.5z M23.3,19.5
		L23.3,19.5"/>
</g>
</svg>
