<?xml version="1.0" standalone="no"?><!DOCTYPE svg PUBLIC "-//W3C//DTD SVG 1.1//EN" "http://www.w3.org/Graphics/SVG/1.1/DTD/svg11.dtd"><svg t="1511246138606" class="icon" style="" viewBox="0 0 1024 1024" version="1.1" xmlns="http://www.w3.org/2000/svg" p-id="8443" xmlns:xlink="http://www.w3.org/1999/xlink" width="48" height="48"><defs><style type="text/css"></style></defs><path d="M512 76.893274c-240.300948 0-435.106726 194.805778-435.106726 435.106726s194.805778 435.106726 435.106726 435.106726c240.305041 0 435.106726-194.805778 435.106726-435.106726S752.305041 76.893274 512 76.893274zM706.535625 364.377848l0 135.329175c0 144.449903-151.939481 286.824541-194.190771 286.824541l-0.655939 0c-42.23287 0-194.22147-142.374638-194.22147-286.824541L317.467445 364.377848l0-6.939039 6.969739 0c131.839701 0 181.583638-60.724013 182.069709-61.33902l5.459339-6.832615 5.561669 6.832615c0.48607 0.615007 50.230008 61.33902 182.069709 61.33902l6.939039 0L706.536648 364.377848z" p-id="8444" fill="#ffffff"></path></svg>