<?xml version="1.0" standalone="no"?><!DOCTYPE svg PUBLIC "-//W3C//DTD SVG 1.1//EN" "http://www.w3.org/Graphics/SVG/1.1/DTD/svg11.dtd"><svg t="1511347828868" class="icon" style="" viewBox="0 0 1024 1024" version="1.1" xmlns="http://www.w3.org/2000/svg" p-id="2831" xmlns:xlink="http://www.w3.org/1999/xlink" width="48" height="48"><defs><style type="text/css"></style></defs><path d="M507.594 184.352c-229.068 0-415.414 177.154-415.414 394.864 0 92.142 34.122 181.816 96.114 252.562 5.494 6.252 13.606 9.87 22.174 9.87H804.74c8.588 0 16.702-3.618 22.176-9.87 61.972-70.746 96.114-160.42 96.114-252.562 0-217.71-186.364-394.864-415.436-394.864z m283.288 602.438H224.308c-48.048-59.288-74.394-132.498-74.394-207.572 0-187.428 160.452-339.938 357.68-339.938 197.23 0 357.704 152.508 357.704 339.938-0.002 75.074-26.336 148.284-74.416 207.572z" fill="#ffffff" p-id="2832"></path><path d="M539.3 624.646h0.036l-187.09-147.104-0.068 0.068c-5.308-4.258-12.084-6.93-19.572-6.93-16.866 0-30.54 12.978-30.52 29.002 0 6.828 2.534 12.98 6.674 17.912l-0.068 0.038 154.54 177.148c1.978 2.91 4.14 5.68 6.674 8.114l0.458 0.542c9.818 9.394 23.44 15.312 38.516 15.312 29.896 0 54.184-23.086 54.184-51.518 0-17.672-9.432-33.322-23.764-42.584zM234.178 567.084h-29.912c-9.568 0-17.324 7.332-17.324 16.428 0 9.092 7.756 16.492 17.324 16.492h29.912c9.582 0 17.34-7.4 17.34-16.492 0.002-9.096-7.758-16.428-17.34-16.428zM320.254 412.952c6.776-6.458 6.776-16.902 0-23.326l-22.528-21.43c-6.778-6.422-17.712-6.422-24.49 0-6.778 6.458-6.778 16.902 0 23.326l22.546 21.43c3.378 3.176 7.79 4.798 12.25 4.798 4.412 0 8.842-1.624 12.222-4.798zM511.366 332.976c9.562 0 17.324-7.368 17.324-16.494v-27.176c0-9.126-7.762-16.498-17.324-16.498-9.566 0-17.338 7.37-17.338 16.498v27.176c-0.002 9.126 7.77 16.494 17.338 16.494zM722.1 368.602l-22.14 21.024c-6.744 6.456-6.744 16.868 0 23.326a17.95 17.95 0 0 0 12.27 4.798c4.412 0 8.858-1.624 12.236-4.798l22.138-21.092c6.778-6.422 6.778-16.868 0-23.256-6.76-6.422-17.728-6.46-24.504-0.002zM810.318 567.084h-31.182c-9.566 0-17.304 7.368-17.304 16.428 0 9.126 7.738 16.492 17.304 16.492h31.182c9.566 0 17.322-7.366 17.322-16.492 0-9.06-7.756-16.428-17.322-16.428z" fill="#ffffff" p-id="2833"></path></svg>