<?xml version="1.0" encoding="utf-8"?>
<!-- Generator: Adobe Illustrator 16.0.0, SVG Export Plug-In . SVG Version: 6.00 Build 0)  -->
<!DOCTYPE svg PUBLIC "-//W3C//DTD SVG 1.1//EN" "http://www.w3.org/Graphics/SVG/1.1/DTD/svg11.dtd">
<svg version="1.1" id="图层_1" xmlns="http://www.w3.org/2000/svg" xmlns:xlink="http://www.w3.org/1999/xlink" x="0px" y="0px"
	 width="32px" height="32px" viewBox="0 0 32 32" enable-background="new 0 0 32 32" xml:space="preserve">
<g>
	<circle fill-rule="evenodd" clip-rule="evenodd" fill="#0866A6" cx="16" cy="16" r="16"/>
	<g>
		<path fill-rule="evenodd" clip-rule="evenodd" fill="#FFFFFF" d="M15.6,16.8c0-0.6,0.4-1,1-1h2.3l2.2-1.3v-4.5
			c0-0.6-0.5-1.1-1.1-1.1h-8.6c-0.6,0-1.1,0.5-1.1,1.1v9.6h5.4V16.8L15.6,16.8L15.6,16.8z M13.1,14c0,0.4-0.3,0.8-0.8,0.8
			s-0.8-0.3-0.8-0.8v-2.6c0-0.4,0.3-0.8,0.8-0.8s0.8,0.3,0.8,0.8V14L13.1,14z"/>
		<path fill-rule="evenodd" clip-rule="evenodd" fill="#FFFFFF" d="M16.6,22c-0.6,0-1-0.4-1-1v-0.5H8.1v1.8h11.2L18.8,22H16.6
			L16.6,22L16.6,22z"/>
		<path fill-rule="evenodd" clip-rule="evenodd" fill="#FFFFFF" d="M22.6,17.6v-2.8l-3.5,2.1v0h-2.5V21h2.5v0l3.5,2.1v-2.8
			c0.7,0,1.3-0.6,1.3-1.3S23.3,17.6,22.6,17.6L22.6,17.6L22.6,17.6z"/>
	</g>
</g>
</svg>
