<?xml version="1.0" standalone="no"?><!DOCTYPE svg PUBLIC "-//W3C//DTD SVG 1.1//EN" "http://www.w3.org/Graphics/SVG/1.1/DTD/svg11.dtd"><svg t="1501142024102" class="icon" style="" viewBox="0 0 1024 1024" version="1.1" xmlns="http://www.w3.org/2000/svg" p-id="4370" xmlns:xlink="http://www.w3.org/1999/xlink" width="32" height="32"><defs><style type="text/css"></style></defs><path d="M523.147 5.347c-280.029 0-507.036 227.011-507.035 507.040 0 280.007 227.007 507.016 507.035 507.019 280.030 0 507.016-227.010 507.018-507.018-0.001-280.033-226.988-507.040-507.018-507.042zM720.447 745.504c-35.735 35.753-168.982 1.864-300.627-129.769-131.646-131.672-165.479-264.896-129.785-300.629 31.014-30.972 68.776-85.111 125.376-14.637 56.641 70.494 28.775 90.184-3.146 122.149-22.38 22.338 24.261 78.839 73.038 127.614 48.819 48.755 105.274 95.359 127.655 73.083 31.965-31.968 51.673-59.812 122.127-3.17 70.452 56.662 16.356 94.38-14.636 125.355z" fill="#006cb1" p-id="4371"></path></svg>