<?xml version="1.0" standalone="no"?><!DOCTYPE svg PUBLIC "-//W3C//DTD SVG 1.1//EN" "http://www.w3.org/Graphics/SVG/1.1/DTD/svg11.dtd"><svg t="1501142178242" class="icon" style="" viewBox="0 0 1024 1024" version="1.1" xmlns="http://www.w3.org/2000/svg" p-id="10107" xmlns:xlink="http://www.w3.org/1999/xlink" width="32" height="32"><defs><style type="text/css"></style></defs><path d="M401.659 394.583c4.07 1.51 11.28 0.481 16.235 0.476h190.992c4.813 0 11.817 0.999 15.76-0.476 3.127-1.172 6.706-4.787 7.638-8.136v-10.526c0-10.568 1.572-22.518-4.777-26.798-3.999-2.699-11.996-1.915-18.621-1.915H403.092c-3.24 2.483-6.922 3.133-8.596 7.178-1.95 4.72-1.966 28.79 0 33.5 1.09 2.606 4.48 5.704 7.163 6.697z m273.592 38.282c-4.372-2.949-13.865-1.915-21.007-1.915h-298.9c-3.247 2.484-6.913 3.134-8.597 7.179-1.956 4.7-1.971 28.81 0 33.5 1.096 2.616 4.475 5.703 7.163 6.702 5.596 2.079 15.82 0.481 22.44 0.476h279.798c11.812 0 21.33 0.512 23.875-8.612v-13.399c0.005-10 1.183-19.912-4.772-23.93zM512 0C229.233 0 0 229.228 0 512c0 282.767 229.233 512 512 512 282.772 0 512-229.233 512-512C1024 229.228 794.772 0 512 0z m239.17 607.063c-2.57 9.81-6.67 17.792-11.934 24.883-9.232 12.437-25.385 20.383-42.496 24.883-8.402 2.212-19.021 1.434-29.128 1.434h-49.659c-1.966 2.985-5.15 5.161-7.639 7.654-4.613 4.946-9.231 9.892-13.844 14.833-3.026 2.872-6.047 5.745-9.073 8.612-4.741 6.282-10.696 12.155-16.235 17.705l-6.206 5.745c-9.2 12.19-21.028 22.932-31.513 33.976-8.525 8.98-9.744 15.544-23.875 19.62-2.463 0.711-6.441 1.572-9.549 0.481-10.9-3.84-10.982-18.104-10.982-33.019l0.476-75.612h-106c-16.173 0-40.565 2.11-53.954-1.434-23.168-6.133-42.296-18.345-51.087-38.763-4.532-10.517-4.296-24.889-4.296-40.197V364.913c0-21.023-2.816-55.716 3.343-70.825 7.368-18.09 22.052-30.428 40.11-37.806 12.17-4.972 28.099-4.788 45.359-4.788h304.63c11.197 0 22.517-0.604 31.513 1.915 23.874 6.677 41.416 20.24 50.135 42.112 3.041 7.63 2.386 18.622 2.386 29.195v262.246c-0.005 6.426 0.988 14.484-0.481 20.101z m-123.668-90.45c-3.999-2.698-11.996-1.915-18.621-1.915H403.092c-3.246 2.483-6.917 3.134-8.596 7.178-1.956 4.706-1.966 28.79 0 33.5 1.09 2.612 4.48 5.704 7.163 6.703 4.07 1.51 11.28 0.481 16.235 0.481h190.992c4.813 0 11.817 0.998 15.76-0.481 3.127-1.173 6.706-4.787 7.638-8.136v-10.527c-0.005-10.572 1.567-22.517-4.782-26.803z" p-id="10108" fill="#006cb1"></path></svg>