<?xml version="1.0" encoding="utf-8"?>
<!-- Generator: Adobe Illustrator 16.0.0, SVG Export Plug-In . SVG Version: 6.00 Build 0)  -->
<!DOCTYPE svg PUBLIC "-//W3C//DTD SVG 1.1//EN" "http://www.w3.org/Graphics/SVG/1.1/DTD/svg11.dtd">
<svg version="1.1" id="图层_1" xmlns="http://www.w3.org/2000/svg" xmlns:xlink="http://www.w3.org/1999/xlink" x="0px" y="0px"
	 width="32px" height="32px" viewBox="0 0 32 32" enable-background="new 0 0 32 32" xml:space="preserve">
<path fill="#006CB1" d="M16,32C7.164,32,0,24.837,0,16C0,7.163,7.164,0,16,0c8.837,0,16,7.163,16,16C32,24.837,24.838,32,16,32z
	 M16,3C8.82,3,3,8.821,3,16c0,3.358,1.284,6.408,3.374,8.714c1.883-0.91,1.191-0.152,3.655-1.167
	c2.521-1.035,3.118-1.396,3.118-1.396l0.024-2.389c0,0-0.945-0.718-1.238-2.966c-0.591,0.17-0.786-0.688-0.821-1.234
	c-0.031-0.527-0.342-2.175,0.379-2.027c-0.147-1.101-0.253-2.092-0.201-2.619c0.181-1.845,1.972-3.773,4.73-3.914
	c3.245,0.141,4.53,2.067,4.711,3.913c0.052,0.526-0.063,1.519-0.211,2.618c0.721-0.147,0.407,1.499,0.372,2.026
	c-0.031,0.546-0.231,1.401-0.82,1.231c-0.295,2.248-1.239,2.96-1.239,2.96l0.022,2.375c0,0,0.598,0.34,3.117,1.376
	c2.465,1.013,1.772,0.301,3.655,1.213c2.09-2.307,3.374-5.356,3.374-8.714C29.001,8.821,23.18,3,16,3z"/>
</svg>
