<?xml version="1.0" standalone="no"?><!DOCTYPE svg PUBLIC "-//W3C//DTD SVG 1.1//EN" "http://www.w3.org/Graphics/SVG/1.1/DTD/svg11.dtd"><svg t="1496396349829" class="icon" style="" viewBox="0 0 1084 1024" version="1.1" xmlns="http://www.w3.org/2000/svg" p-id="22949" xmlns:xlink="http://www.w3.org/1999/xlink" width="50.8125" height="48"><defs><style type="text/css"></style></defs><path d="M1072.315374 406.28984c-6.332274-33.46201-26.766219-55.082004-52.055267-55.082004-0.323468 0-0.651557 0.003081-0.830235 0.009242l-4.656401 0c-73.136148 0-132.638884-59.501195-132.638884-132.638884 0-23.73486 11.449232-50.343966 11.547813-50.573475 13.106621-29.503376 3.023657-65.682518-23.431416-84.140226l-1.601937-1.127518-134.421039-74.673392-1.700518-0.745517c-8.755204-3.806142-18.337563-5.736168-28.483681-5.736168-20.792841 0-41.242189 8.345478-54.692302 22.31006-14.743986 15.218406-65.633227 58.658638-104.737446 58.658638-39.456953 0-90.648097-44.293572-105.455237-59.793857-13.520969-14.249542-34.133591-22.756754-55.135916-22.756754-9.947416 0-19.357258 1.862252-27.963051 5.532846l-1.746728 0.740896-139.163698 76.443225-1.643526 1.13984c-26.541332 18.440765-36.681288 54.58756-23.58853 84.075533 0.115524 0.264936 11.5817 26.729251 11.5817 50.642789 0 73.137688-59.501195 132.638884-132.638884 132.638884l-4.582465 0c-0.318847-0.006161-0.636154-0.010782-0.951921-0.010782-25.264403 0-45.679864 21.621535-52.010597 55.089706-0.462097 2.453737-11.315224 60.631794-11.315224 106.13452 0 45.501186 10.853126 103.676162 11.316764 106.13606 6.335355 33.46355 26.763138 55.085085 52.044484 55.085085 0.320387 0 0.651557-0.006161 0.842558-0.012323l4.656401 0c73.137688 0 132.638884 59.501195 132.638884 132.637343 0 23.764126-11.446151 50.340886-11.547813 50.573475-13.095839 29.47873-3.042141 65.656332 23.39907 84.164871l1.569591 1.09363 131.859479 73.738415 1.675873 0.737815c8.752124 3.84311 18.308297 5.79162 28.402044 5.79162 21.085502 0 41.682721-8.707454 55.097408-23.294328 18.727265-20.350767 69.53795-62.37236 107.064876-62.37236 40.63222 0 92.739858 47.107744 107.776506 63.593838 13.443952 14.833325 34.181341 23.693272 55.479408 23.699433l0.006161 0c9.896585 0 19.281782-1.883817 27.898357-5.59908l1.711301-0.739356 136.680695-75.543675 1.617341-1.129058c26.496662-18.459249 36.607352-54.609125 23.54232-84.029323-0.115524-0.268016-11.597103-27.086606-11.597103-50.684378 0-73.136148 59.502736-132.637343 132.638884-132.637343l4.517772-0.00154c0.300363 0.006161 0.599186 0.009242 0.89955 0.009242 25.335257-0.00154 45.792307-21.623075 52.115339-55.06352 0.112444-0.589944 11.327546-59.516599 11.327546-106.157625C1083.633679 466.713689 1072.777472 408.737415 1072.315374 406.28984zM377.545844 945.803901l-115.34566-64.498008c5.083071-13.05425 15.440213-43.52495 15.440213-75.029207 0-109.400008-84.189517-199.847863-192.61758-208.167156-2.647818-15.429431-8.87535-54.975722-8.87535-85.680551 0-30.6617 6.224451-70.243419 8.870729-85.685172 108.432684-8.313131 192.622201-98.760986 192.622201-208.167156 0-31.42108-10.30169-61.807061-15.373979-74.865932l122.740758-67.413842c0.003081 0 0.004621 0.00154 0.007702 0.00154 4.423812 4.519312 22.125221 22.083632 46.56555 39.500082 39.935993 28.466737 77.965065 42.901118 113.032093 42.901118 34.721995 0 72.449163-14.154042 112.132543-42.070883 24.286297-17.082199 41.902988-34.307648 46.316018-38.751484 0.009242-0.00154 0.018484-0.004621 0.026186-0.006161l118.320027 65.736429c-5.07845 13.057331-15.418648 43.506466-15.418648 74.970674 0 109.406169 84.187976 199.854024 192.62066 208.167156 2.646278 15.464858 8.873809 55.115892 8.873809 85.685172 0 30.692506-6.224451 70.25266-8.870729 85.686712C890.181243 606.428824 805.990186 696.876679 805.990186 806.284388c0 31.454967 10.318634 61.860973 15.395543 74.915223l-119.801819 66.209309c-5.169329-5.491257-22.607343-23.366723-46.747308-41.29456-40.707696-30.228868-79.674825-45.556638-115.81854-45.556638-35.797142 0-74.470069 15.041269-114.945176 44.701758C400.282574 922.699034 382.725955 940.401983 377.545844 945.803901z" p-id="22950" fill="#0064aa"></path><path d="M731.386109 511.726592c0-105.820294-86.094898-191.910571-191.918272-191.910571-105.820294 0-191.910571 86.090277-191.910571 191.910571 0 105.820294 86.090277 191.912111 191.910571 191.912111C645.292751 703.638703 731.386109 617.546886 731.386109 511.726592zM539.467837 395.965044c63.835669 0 115.76925 51.9305 115.76925 115.761548 0 63.835669-51.933581 115.76925-115.76925 115.76925-63.831048 0-115.761548-51.933581-115.761548-115.76925C423.706289 447.894004 475.636789 395.965044 539.467837 395.965044z" p-id="22951" fill="#0064aa"></path></svg>