<?xml version="1.0" standalone="no"?><!DOCTYPE svg PUBLIC "-//W3C//DTD SVG 1.1//EN" "http://www.w3.org/Graphics/SVG/1.1/DTD/svg11.dtd"><svg t="1511257637018" class="icon" style="" viewBox="0 0 1024 1024" version="1.1" xmlns="http://www.w3.org/2000/svg" p-id="12138" xmlns:xlink="http://www.w3.org/1999/xlink" width="48" height="48"><defs><style type="text/css"></style></defs><path d="M195.357851 929.34213c-34.790364 0-63.095014-28.300556-63.095014-63.088874L132.262838 517.436826l-1.452071-0.601704-33.29736 33.30657c-4.485151 4.484128-10.44898 6.953366-16.789385 6.953366-6.341429 0-12.304234-2.469238-16.787338-6.953366-4.487198-4.485151-6.957459-10.44591-6.957459-16.788361s2.470261-12.30628 6.957459-16.790408L467.387431 113.107057C479.285412 101.2101 495.130286 94.65787 512.002558 94.65787c16.873296 0 32.716122 6.551206 44.614104 18.449187l403.450748 403.454842c4.484128 4.484128 6.953366 10.447956 6.953366 16.790408s-2.469238 12.305257-6.953366 16.788361c-4.482081 4.481058-10.44284 6.951319-16.784268 6.951319-6.344498 0-12.30628-2.470261-16.789385-6.951319l-36.992519-37.000706-1.454118 0.601704 0 352.510566c0 34.788318-28.303626 63.088874-63.095014 63.088874L195.357851 929.341107zM608.527962 570.998719c34.788318 0 63.089897 28.30158 63.089897 63.088874l0 246.920716 0.851391 0.851391 152.48081 0c8.608052 0 15.610536-7.002484 15.610536-15.607466L840.560596 464.558501l-0.249687-0.601704L523.036869 146.68378c-2.940982-2.944052-6.861268-4.565992-11.035334-4.565992-4.175089 0-8.093329 1.620917-11.034311 4.565992l-320.970222 320.967152-0.249687 0.601704 0 397.999596c0 8.604982 7.003508 15.607466 15.610536 15.607466l152.475693 0 0.852414-0.851391L348.685959 634.088616c0-34.787294 28.304649-63.088874 63.095014-63.088874L608.527962 570.999742zM411.779949 618.483196c-8.607028 0-15.609513 7.002484-15.609513 15.60542l0 246.920716 0.852414 0.851391 226.264257 0 0.851391-0.851391L624.138498 634.088616c0-8.602935-7.001461-15.60542-15.609513-15.60542L411.779949 618.483196z" p-id="12139" fill="#ffffff"></path></svg>