<?xml version="1.0" standalone="no"?><!DOCTYPE svg PUBLIC "-//W3C//DTD SVG 1.1//EN" "http://www.w3.org/Graphics/SVG/1.1/DTD/svg11.dtd"><svg t="1511235250552" class="icon" style="" viewBox="0 0 1024 1024" version="1.1" xmlns="http://www.w3.org/2000/svg" p-id="4446" xmlns:xlink="http://www.w3.org/1999/xlink" width="48" height="48"><defs><style type="text/css"></style></defs><path d="M627.2 864H544c-12.8 0-25.6-12.8-25.6-25.6v-96l44.8-6.4v-51.2H64v-64h454.4V576H83.2c-12.8 0-25.6-12.8-25.6-25.6V160c0-12.8 12.8-25.6 25.6-25.6h787.2c12.8 0 25.6 12.8 25.6 25.6v230.4c19.2 0 12.8 12.8 38.4 25.6V121.6c0-12.8-12.8-25.6-25.6-25.6H51.2c-12.8 0-25.6 12.8-25.6 25.6l-6.4 537.6c0 44.8 25.6 83.2 102.4 83.2h211.2c12.8 0 25.6 12.8 25.6 25.6v102.4H281.6c-12.8 0-25.6 12.8-25.6 25.6 0 6.4 0 19.2 6.4 19.2 6.4 6.4 12.8 6.4 19.2 12.8h345.6c6.4 0 12.8-6.4 19.2-12.8 6.4-6.4 6.4-12.8 6.4-19.2 0-6.4 0-19.2-6.4-19.2-6.4-6.4-12.8-6.4-19.2-12.8z m-147.2 0h-64c-12.8 0-25.6-12.8-25.6-25.6V768c0-12.8 12.8-25.6 25.6-25.6h38.4c12.8 0 25.6 12.8 25.6 25.6v96z" p-id="4447" fill="#ffffff"></path><path d="M768 704c-44.8 0-76.8-32-76.8-76.8s32-76.8 76.8-76.8 76.8 32 76.8 76.8c6.4 38.4-32 76.8-76.8 76.8z m0-128c-25.6 0-51.2 25.6-51.2 51.2s25.6 51.2 51.2 51.2 51.2-25.6 51.2-51.2c0-12.8-6.4-25.6-12.8-38.4-6.4-12.8-19.2-12.8-38.4-12.8z" p-id="4448" fill="#ffffff"></path><path d="M768 844.8c-12.8 0-32-6.4-44.8-12.8-12.8-12.8-19.2-25.6-19.2-44.8-6.4 0-12.8-6.4-12.8-6.4-12.8 12.8-25.6 19.2-44.8 19.2-25.6 0-44.8-12.8-57.6-38.4-12.8-25.6-6.4-51.2 12.8-64 0-6.4-6.4-12.8-6.4-12.8-32 0-64-25.6-64-64 0-32 25.6-64 64-64 0-6.4 6.4-12.8 6.4-12.8-19.2-25.6-19.2-64 6.4-83.2 25.6-25.6 57.6-25.6 83.2 0l19.2-12.8c0-32 25.6-64 64-64 32 0 64 25.6 64 64l12.8 6.4c25.6-19.2 64-19.2 83.2 6.4 25.6 19.2 25.6 57.6 6.4 83.2 0 6.4 6.4 12.8 6.4 12.8 32 0 64 25.6 64 64 0 32-25.6 64-64 64 0 6.4-6.4 12.8-6.4 12.8 19.2 25.6 19.2 64 0 83.2-25.6 25.6-64 25.6-83.2 0h-12.8c0 19.2-6.4 32-19.2 44.8-19.2 19.2-38.4 25.6-57.6 19.2z m-83.2-96h12.8l38.4 19.2c6.4 0 12.8 6.4 12.8 12.8s6.4 12.8 0 19.2c0 6.4 0 19.2 6.4 25.6 6.4 6.4 6.4 6.4 12.8 6.4s12.8 0 19.2-6.4c6.4-6.4 6.4-12.8 0-19.2v-19.2c0-6.4 6.4-6.4 12.8-12.8 12.8-6.4 32-6.4 44.8-19.2 6.4-6.4 12.8-6.4 19.2 0 6.4 0 12.8 6.4 12.8 12.8 0 0 0 6.4 6.4 6.4 6.4 6.4 12.8 6.4 25.6 6.4 6.4 0 12.8-12.8 12.8-19.2 0-6.4-6.4-19.2-12.8-19.2s-12.8-6.4-12.8-12.8v-19.2c6.4-12.8 12.8-25.6 19.2-44.8 0-6.4 6.4-12.8 12.8-12.8s12.8-6.4 19.2 0h6.4c6.4 0 12.8 0 12.8-6.4 6.4-6.4 6.4-12.8 6.4-12.8 0-12.8-12.8-19.2-19.2-19.2h-25.6c-6.4 0-12.8-6.4-12.8-12.8-6.4-12.8-6.4-25.6-19.2-38.4v-38.4c0-6.4 6.4-12.8 12.8-12.8 6.4-6.4 12.8-12.8 12.8-25.6s-6.4-19.2-19.2-19.2c-12.8 0-19.2 6.4-25.6 12.8 0 6.4-6.4 12.8-12.8 12.8h-19.2c-12.8-6.4-25.6-12.8-44.8-19.2-6.4 0-12.8-6.4-12.8-12.8s-6.4-12.8 0-19.2v-6.4c0-12.8-12.8-19.2-19.2-19.2-12.8 0-19.2 12.8-19.2 19.2v25.6c0 6.4-6.4 6.4-12.8 12.8-12.8 6.4-25.6 6.4-38.4 19.2-6.4 6.4-12.8 6.4-19.2 0-6.4 0-12.8-6.4-12.8-12.8 0 0 0-6.4-6.4-6.4-6.4-6.4-19.2-6.4-32 0-6.4 6.4-12.8 12.8-12.8 25.6 0 6.4 6.4 12.8 12.8 12.8s12.8 6.4 12.8 12.8v19.2l-19.2 38.4c0 6.4-6.4 12.8-12.8 12.8s-12.8 6.4-19.2 0h-6.4c-12.8 0-19.2 12.8-19.2 19.2 0 12.8 12.8 19.2 19.2 19.2h25.6c6.4 0 6.4 6.4 12.8 12.8 6.4 12.8 6.4 32 19.2 44.8 6.4 6.4 6.4 12.8 0 19.2 0 6.4-6.4 12.8-12.8 12.8s-12.8 6.4-12.8 12.8 0 12.8 6.4 19.2c6.4 6.4 6.4 6.4 12.8 6.4s12.8-6.4 19.2-12.8c0-6.4 6.4-12.8 12.8-12.8l19.2 12.8z" p-id="4449" fill="#ffffff"></path></svg>