<?xml version="1.0" standalone="no"?><!DOCTYPE svg PUBLIC "-//W3C//DTD SVG 1.1//EN" "http://www.w3.org/Graphics/SVG/1.1/DTD/svg11.dtd"><svg t="1511229259624" class="icon" style="" viewBox="0 0 1024 1024" version="1.1" xmlns="http://www.w3.org/2000/svg" p-id="3555" xmlns:xlink="http://www.w3.org/1999/xlink" width="128" height="128"><defs><style type="text/css"></style></defs><path d="M685.44 355.555556H810.666667v56.888888h-125.226667v104.106667A298.296889 298.296889 0 0 1 768 722.574222c0 80.583111-31.985778 156.515556-89.813333 213.390222C620.487111 992.711111 543.672889 1024 462.222222 1024s-158.264889-31.288889-215.964444-88.035556C188.430222 879.075556 156.444444 803.157333 156.444444 722.574222a298.282667 298.282667 0 0 1 82.545778-206.023111V185.543111c0-53.461333 27.363556-103.864889 73.742222-138.382222C353.834667 16.540444 406.840889 0 462.208 0c55.381333 0 108.387556 16.540444 149.504 47.160889 37.831111 28.16 63.032889 66.929778 71.011556 109.283555H810.666667v56.888889h-125.226667v42.666667H810.666667v56.888889h-125.226667v42.666667z m-85.333333-170.012445c0-25.415111-13.852444-50.958222-39.352889-69.944889C534.798222 96.284444 499.726222 85.333333 462.222222 85.333333c-37.504 0-72.590222 10.951111-98.531555 30.264889-25.500444 18.986667-39.367111 44.515556-39.367111 69.944889v367.431111l-13.653334 12.657778C266.567111 606.549333 241.777778 662.968889 241.777778 722.588444c0 57.642667 22.755556 111.672889 64.312889 152.547556C347.790222 916.124444 403.114667 938.666667 462.222222 938.666667s114.432-22.542222 156.131556-63.544889C659.911111 834.247111 682.666667 780.231111 682.666667 722.574222c0-59.619556-24.789333-116.039111-68.892445-156.928l-13.653333-12.657778V185.528889zM516.835556 597.831111c47.416889 20.721778 80.497778 67.569778 80.497777 122.069333C597.333333 793.6 536.846222 853.333333 462.222222 853.333333S327.111111 793.6 327.111111 719.900444c0-54.499556 33.080889-101.347556 80.497778-122.069333V367.928889c0-22.556444 24.448-40.832 54.613333-40.832 30.151111 0 54.613333 18.275556 54.613334 40.832v229.888z" p-id="3556" fill="#ffffff"></path></svg>