<?xml version="1.0" standalone="no"?><!DOCTYPE svg PUBLIC "-//W3C//DTD SVG 1.1//EN" "http://www.w3.org/Graphics/SVG/1.1/DTD/svg11.dtd"><svg t="1511246449820" class="icon" style="" viewBox="0 0 1024 1024" version="1.1" xmlns="http://www.w3.org/2000/svg" p-id="11253" xmlns:xlink="http://www.w3.org/1999/xlink" width="48" height="48"><defs><style type="text/css"></style></defs><path d="M512.000513 971.636988c-253.482834 0-459.636474-206.161851-459.636474-459.608765 0-253.498228 206.212138-459.664184 459.636474-459.664184 253.431521 0 459.636474 206.225479 459.636474 459.664184C971.636988 765.475137 765.489504 971.636988 512.000513 971.636988L512.000513 971.636988zM512.000513 95.999711c-229.396443 0-415.999776 186.616674-415.999776 416.030563 0 229.35334 186.604359 415.970014 415.999776 415.970014 229.396443 0 415.999776-186.616674 415.999776-415.970014C928.000289 282.674882 741.39593 95.999711 512.000513 95.999711L512.000513 95.999711z" p-id="11254" fill="#ffffff"></path><path d="M553.810464 420.29366 553.810464 420.29366c-4.305173-3.902878-10.885571-4.783411-16.273451-1.639968-1.649204 0.980081-3.060316 2.245463-4.178943 3.784858l-9.145029 10.419647c-16.093855-14.102905-35.006854-25.101365-55.754811-32.240049l4.508373-13.095115c0.769697-1.732332 1.136073-3.601157 1.136073-5.580818 0-6.177076-4.033213-11.382282-9.566823-13.195688l0.091337 0c-15.835237-3.930587-32.385779-6.021084-49.466899-6.021084-16.973362 0-33.559823 2.090498-49.375561 6.021084-5.537715 1.842142-9.567849 7.093529-9.567849 13.195688 0 1.980687 0.477212 3.849512 1.21099 5.580818l4.4899 13.095115c-20.783876 7.06582-39.608617 18.137144-55.699393 32.240049l-9.180948-10.419647c-1.118627-1.512712-2.549237-2.80375-4.235387-3.784858-5.333488-3.143443-11.931333-2.26291-16.221112 1.639968l0.019499 0c-11.345336 11.711712-21.463262 24.991554-29.98535 39.726637-8.523113 14.763818-14.955729 30.159814-19.428183 45.829823l0-0.082101c-1.137099 5.801464 1.282829 11.876941 6.671735 14.955729 1.649204 0.970845 3.554975 1.512712 5.424826 1.786724l13.452254 2.667257c-2.107944 10.373465-3.208098 21.113307-3.208098 32.165132 0 11.007696 1.100154 21.775246 3.208098 32.221577l-13.452254 2.666231c-1.833932 0.220647-3.665811 0.798433-5.38788 1.788776-5.389933 3.05108-7.846806 9.209683-6.708681 14.926994l0-0.055418c4.525819 15.672061 10.90507 31.048558 19.428183 45.783641 8.503614 14.754582 18.622567 28.061107 29.965851 39.74511 4.307225 3.886458 10.886597 4.729019 16.221112 1.595839 1.68615-0.879507 3.11676-2.200308 4.235387-3.711993l9.180948-10.474039c16.091802 14.112141 34.915517 25.128047 55.699393 32.192841L357.424794 727.136007c-0.733778 1.714885-1.21099 3.602183-1.21099 5.580818 0 6.16784 4.070159 11.382282 9.640714 13.223398 15.743899 3.959322 32.33036 6.048794 49.375561 6.084713 16.973362-0.035919 33.505431-2.124364 49.303723-6.084713 5.534636-1.841116 9.604795-7.055558 9.604795-13.223398 0-1.979661-0.405374-3.821803-1.175071-5.580818l-4.508373-13.113587c20.747957-7.064794 39.660956-18.0807 55.754811-32.192841l9.145029 10.474039c1.099128 1.512712 2.529738 2.832486 4.235387 3.711993 5.331436 3.105472 11.911834 2.290619 16.218033-1.595839l0 0c11.328916-11.710686 21.500208-24.990528 30.002796-39.74511 8.488221-14.735083 14.865418-30.112606 19.319399-45.864716 1.15352-5.774781-1.264356-11.739421-6.598871-14.790501-1.723095-1.018053-3.573447-1.56813-5.444325-1.788776l-13.434808-2.666231c2.01558-10.447356 3.153706-21.214907 3.153706-32.221577 0-10.995381-1.138126-21.773194-3.153706-32.165132l13.434808-2.667257c1.869851-0.220647 3.721229-0.815879 5.444325-1.786724 5.333488-3.078789 7.75239-9.118346 6.598871-14.873628-4.453981-15.725427-10.832205-31.112186-19.355318-45.848295C575.255254 445.257505 565.13938 432.005372 553.810464 420.29366zM415.15824 649.038426c-50.51266 0-91.678118-41.164432-91.678118-91.696591 0-50.557816 41.165458-91.686328 91.678118-91.686328 50.511634 0 91.749957 41.128512 91.749957 91.686328C506.909223 607.873994 465.669874 649.038426 415.15824 649.038426zM415.15824 505.520689c-28.554739 0-51.832435 23.283853-51.832435 51.848855 0 28.546529 23.277695 51.833461 51.832435 51.833461 28.51882 0 51.887853-23.285905 51.887853-51.833461C467.046093 528.805568 443.67706 505.520689 415.15824 505.520689zM659.630485 475.648228c-0.478239 0.954425-0.587022 2.025843-0.587022 3.098288 0 3.445165 2.162336 6.378224 5.204179 7.395251 8.835097 2.226991 18.126882 3.436954 27.603393 3.436954 9.565797 0 18.786769-1.209964 27.602367-3.436954l0 0.026683c3.151653-1.016 5.370434-3.903904 5.370434-7.421933 0-1.072445-0.238093-2.143863-0.67836-3.098288l-3.849512-11.418201c11.033353-3.738676 21.040442-9.566823 29.654893-17.126275l7.990483 9.097821c0.550077 0.77175 1.413164 1.513738 2.310118 2.044316 3.005924 1.750805 6.672761 1.283855 9.10911-0.943136 6.322806-6.48906 11.988803-13.913046 16.734243-22.132386 4.710547-8.247049 8.339412-16.879972 10.815785-25.593971 0.713253-3.181415-0.716332-6.598871-3.68531-8.358911-1.00779-0.549051-1.961188-0.851798-3.061342-0.961608l-11.731211-2.336801c1.064235-5.526426 1.724122-11.243736 1.724122-17.156037 0-5.855856-0.659887-11.655268-1.724122-17.099593l11.731211-2.36451c1.100154-0.10981 2.053552-0.404348 3.061342-0.990344 2.968979-1.724122 4.398563-5.141577 3.68531-8.357885-2.476372-8.678079-6.105238-17.347948-10.833231-25.540605-4.727993-8.248075-10.448383-15.743899-16.716797-22.214487-2.436348-2.163362-6.103186-2.658021-9.10911-0.962635-0.896954 0.577786-1.687176 1.26333-2.310118 2.144889l-7.990483 9.044455c-8.614451-7.533796-18.62154-13.389652-29.728784-17.183746l3.923403-11.353547c0.440267-0.989317 0.67836-2.033027 0.67836-3.124971 0-3.445165-2.255726-6.359751-5.370434-7.32136-8.815598-2.274199-18.035544-3.46569-27.602367-3.46569-9.476512 0-18.768296 1.191491-27.603393 3.46569l0.037972 0c-3.11676 0.961608-5.279096 3.875169-5.279096 7.32136 0 1.090917 0.145729 2.135653 0.622942 3.124971l3.848486 11.353547c-11.034379 3.794094-21.040442 9.64995-29.654893 17.156037l-7.919671-9.016746c-0.58497-0.816905-1.37314-1.567103-2.345011-2.144889-2.971031-1.695386-6.616317-1.201754-9.018798 0.962635-6.375145 6.470588-11.948779 13.965386-16.787609 22.214487-4.764939 8.191631-8.32094 16.862526-10.885571 25.567288-0.622942 3.217334 0.732752 6.607081 3.775621 8.330176 0.954425 0.494659 1.942716 0.879507 3.005924 0.990344l11.731211 2.36451c-1.081681 5.444325-1.723095 11.243736-1.723095 17.099593 0 5.912301 0.641414 11.629611 1.723095 17.156037l-11.731211 2.336801c-1.063208 0.108784-2.01558 0.439241-3.005924 0.961608-3.04287 1.760041-4.398563 5.177496-3.775621 8.358911 2.564631 8.713998 6.121658 17.346922 10.885571 25.622706 4.839856 8.191631 10.412463 15.615616 16.787609 22.104677 2.402481 2.226991 6.048794 2.748332 9.018798 1.016 0.971871-0.604469 1.760041-1.346457 2.345011-2.11718l7.919671-9.072164c8.614451 7.533796 18.620514 13.362969 29.654893 17.157063L659.630485 475.648228zM638.187748 380.763038c0-29.665156 24.044314-53.719732 53.664314-53.719732 29.690812 0 53.774124 24.05355 53.774124 53.719732 0 29.691839-24.084338 53.748467-53.774124 53.748467C662.231035 434.511506 638.187748 410.454877 638.187748 380.763038z" p-id="11255" fill="#ffffff"></path></svg>