<?xml version="1.0" standalone="no"?><!DOCTYPE svg PUBLIC "-//W3C//DTD SVG 1.1//EN" "http://www.w3.org/Graphics/SVG/1.1/DTD/svg11.dtd"><svg t="1511246263347" class="icon" style="" viewBox="0 0 1024 1024" version="1.1" xmlns="http://www.w3.org/2000/svg" p-id="9713" xmlns:xlink="http://www.w3.org/1999/xlink" width="48" height="48"><defs><style type="text/css"></style></defs><path d="M512 998.4h18.773c34.134-5.12 58.027-29.013 68.267-58.027 5.12-10.24 10.24-23.893 10.24-39.253H414.72c0 52.907 44.373 97.28 97.28 97.28zM824.32 35.84l-68.267 68.267c97.28 68.266 160.427 179.2 170.667 310.613H1024c-10.24-155.307-83.627-291.84-199.68-378.88z m-551.253 68.267L204.8 35.84C87.04 122.88 10.24 259.413 0 414.72h97.28c10.24-131.413 73.387-242.347 175.787-310.613zM829.44 438.613c0-150.186-102.4-273.066-244.053-307.2V97.28c0-39.253-34.134-73.387-73.387-73.387s-73.387 34.134-73.387 73.387v34.133C296.96 165.547 194.56 286.72 194.56 438.613V706.56l-97.28 97.28v47.787h829.44V803.84l-97.28-97.28V438.613z m-590.507 337.92l34.134-32.426 30.72-116.054V452.267c0-98.987 68.266-196.267 160.426-220.16V209.92c0-25.6 22.187-47.787 47.787-47.787 25.6 0 47.787 22.187 47.787 47.787v22.187c93.866 22.186 160.426 119.466 160.426 220.16V629.76l30.72 116.053 34.134 32.427H238.933z" p-id="9714" fill="#ffffff"></path></svg>