<?xml version="1.0" standalone="no"?><!DOCTYPE svg PUBLIC "-//W3C//DTD SVG 1.1//EN" "http://www.w3.org/Graphics/SVG/1.1/DTD/svg11.dtd"><svg t="1496395698673" class="icon" style="" viewBox="0 0 1024 1024" version="1.1" xmlns="http://www.w3.org/2000/svg" p-id="16188" xmlns:xlink="http://www.w3.org/1999/xlink" width="18" height="18"><defs><style type="text/css"></style></defs><path d="M240.24639 1.306977c54.625407 0 109.159161 0.54992 163.876221 0 44.818497-0.458267 65.715465 22.913342 65.898771 65.807118C470.296343 180.672618 470.296343 293.95618 469.654769 407.331396 469.288156 448.575411 446.0082 469.747339 406.230639 470.022299 292.76377 470.663873 179.296901 470.388913 65.830031 469.655686 22.752949 469.380726 0.389527 447.383918 0.664487 402.932034 0.939447 291.573192 0.939447 180.397657 0.297873 68.947162c-0.27496-47.934711 23.463262-68.465066 69.748213-68.006799C126.779521 1.67359 183.512955 1.215324 240.24639 1.306977L240.24639 1.306977z" p-id="16189" fill="#006cb1"></path><path d="M796.124065 0.29879c52.51738 0 105.034759 0.54992 157.552139-0.183307 46.193297-0.458267 70.389786 19.705474 70.114826 67.823492-0.54992 111.358842-0.54992 222.717683-0.183307 334.168179 0.183307 47.751405-24.379796 68.190106-70.48144 68.098452C843.967123 470.022299 734.624655 470.113953 625.282188 470.388913c-50.226045 0.091653-71.85624-25.57129-71.489627-74.697495 0.54992-107.142787 0.27496-214.377227-0.091653-321.611667-0.091653-48.759592 21.080275-74.239228 72.222854-73.047734 56.733435 1.374801 113.466869 0.27496 170.200304 0.27496C796.124065 0.940364 796.124065 0.665403 796.124065 0.29879z" p-id="16190" fill="#006cb1"></path><path d="M229.981213 554.893318c54.808714 0 109.525774 0.916534 164.334488-0.183307 48.942898-1.09984 75.797335 18.880594 75.614028 70.298133-0.366613 109.525774-0.183307 219.143202 0 328.668976 0.091653 46.193297-20.530354 70.20648-68.923332 69.748213-111.725455-1.008187-223.359257-0.916534-335.084712-0.183307-45.368417 0.27496-65.257198-22.180115-65.257198-65.715465 0-111.725455 0.183307-223.45091 0.183307-334.901406 0-47.934711 24.563103-68.465066 71.03136-67.640185C124.57984 555.718198 177.280526 554.893318 229.981213 554.893318z" p-id="16191" fill="#006cb1"></path><path d="M1022.96615 790.992393c0 56.733435-0.091653 113.466869 0 170.10865 0.091653 41.244015-19.980434 62.140983-61.591063 61.957677-113.375216-0.091653-226.933738-0.183307-340.308954 0.183307-44.268577 0.183307-66.448692-21.263581-66.540345-64.982238C554.067521 846.809294 554.067521 735.542106 554.159174 624.274917c0.091653-46.284951 22.821689-69.656559 69.839866-69.564906 111.267188 0.183307 222.717683 0.091653 333.984872 0.091653 43.993616 0.091653 65.532158 21.813502 65.257198 66.082078C1022.69119 677.70883 1022.96615 734.350612 1022.96615 790.992393z" p-id="16192" fill="#006cb1"></path></svg>