<?xml version="1.0" encoding="utf-8"?>
<!-- Generator: Adobe Illustrator 16.0.0, SVG Export Plug-In . SVG Version: 6.00 Build 0)  -->
<!DOCTYPE svg PUBLIC "-//W3C//DTD SVG 1.1//EN" "http://www.w3.org/Graphics/SVG/1.1/DTD/svg11.dtd">
<svg version="1.1" id="图层_1" xmlns="http://www.w3.org/2000/svg" xmlns:xlink="http://www.w3.org/1999/xlink" x="0px" y="0px"
	 width="32px" height="32px" viewBox="0 0 32 32" enable-background="new 0 0 32 32" xml:space="preserve">
<path fill="#006CB1" d="M15.92,0c-8.836,0-16,7.163-16,15.999c0,8.837,7.164,16.001,16,16.001s16-7.164,16-16.001
	C31.92,7.163,24.756,0,15.92,0z M24.539,9.971l-8.593,8.967L7.272,9.971H24.539L24.539,9.971z M6.686,11.276l4.801,4.892
	l-4.801,4.799V11.276z M7.289,22.283l5.107-5.314l3.531,3.598l3.479-3.598l5.157,5.314H7.289z M25.154,20.967l-4.932-4.813
	l4.932-4.951V20.967z"/>
</svg>
